<svg width="17" height="16" viewBox="0 0 17 16" fill="none" xmlns="http://www.w3.org/2000/svg">
<g id="logos:google-icon" clip-path="url(#clip0_819_1144)">
<path id="Vector" d="M16.4924 8.14968C16.4924 7.49417 16.4379 7.01582 16.3201 6.51976H8.65936V9.47842H13.156C13.0654 10.2137 12.5759 11.321 11.4879 12.065L11.4727 12.1641L13.8949 13.9976L14.0627 14.0139C15.6039 12.6231 16.4924 10.5769 16.4924 8.14968Z" fill="#4285F4"/>
<path id="Vector_2" d="M8.65936 15.945C10.8624 15.945 12.7118 15.2363 14.0627 14.0139L11.4879 12.065C10.7989 12.5345 9.87418 12.8623 8.65936 12.8623C6.50168 12.8623 4.67036 11.4716 4.01755 9.54932L3.92186 9.55726L1.40324 11.4618L1.3703 11.5513C2.71205 14.1556 5.46811 15.945 8.65936 15.945Z" fill="#34A853"/>
<path id="Vector_3" d="M4.01756 9.54932C3.84531 9.05326 3.74562 8.52171 3.74562 7.97252C3.74562 7.42327 3.84531 6.89179 4.0085 6.39573L4.00394 6.29008L1.45375 4.35493L1.37031 4.39371C0.817313 5.47445 0.5 6.68806 0.5 7.97252C0.5 9.25698 0.817313 10.4705 1.37031 11.5513L4.01756 9.54932Z" fill="#FBBC05"/>
<path id="Vector_4" d="M8.65936 3.08269C10.1915 3.08269 11.225 3.72934 11.8143 4.26974L14.1171 2.07285C12.7028 0.788397 10.8624 0 8.65936 0C5.46811 0 2.71205 1.78937 1.3703 4.39371L4.00849 6.39573C4.67036 4.47347 6.50168 3.08269 8.65936 3.08269Z" fill="#EB4335"/>
</g>
<defs>
<clipPath id="clip0_819_1144">
<rect width="16" height="16" fill="white" transform="translate(0.5)"/>
</clipPath>
</defs>
</svg>
